<?xml version="1.0" encoding="UTF-8"?>
<svg width="16px" height="16px" viewBox="0 0 16 16" version="1.1" xmlns="http://www.w3.org/2000/svg" xmlns:xlink="http://www.w3.org/1999/xlink">
    <!-- Generator: Sketch 56.3 (81716) - https://sketch.com -->
    <title>ic_setting</title>
    <desc>Created with Sketch.</desc>
    <g id="ic_setting" stroke="none" stroke-width="1" fill="none" fill-rule="evenodd">
        <g fill-rule="nonzero">
            <rect id="Rectangle" fill="#000000" opacity="0" x="0" y="0" width="16" height="16"></rect>
            <path d="M13.5056752,9.95297987 C13.0135768,9.46802867 12.707912,8.79448533 12.707912,8.04902277 C12.707912,7.30370409 13.0135128,6.6302247 13.5055472,6.14519356 C13.5055472,6.14519356 13.6669258,5.97076783 13.6004589,5.78132827 C13.3914166,5.26647733 13.110663,4.77903183 12.762579,4.33498089 C12.6315958,4.18855217 12.4152785,4.25711369 12.4152785,4.25711369 C11.7490102,4.44065325 11.0127254,4.36847819 10.3669872,3.99581884 C9.72129697,3.6231595 9.29067692,3.0218392 9.11650702,2.35341239 C9.11650702,2.35341239 9.04565905,2.12503923 8.84053412,2.08735278 C8.51499484,2.02748937 7.52240381,2.02376389 7.1529583,2.09697825 C6.98016345,2.14955061 6.93572958,2.35314058 6.93572958,2.35314058 C6.76162362,3.02171128 6.33093962,3.62307956 5.68520144,3.99581884 C5.03951122,4.36847819 4.30329037,4.44065325 3.63708606,4.25717764 L3.63833322,4.25829687 C3.63833322,4.25829687 3.40226927,4.20382181 3.27189367,4.35963617 C3.10611806,4.57320337 2.54019777,5.55936675 2.43393381,5.82628978 C2.390875,6.00341769 2.54833625,6.14560928 2.54833625,6.14560928 L2.54656145,6.14514559 C3.03865981,6.63011278 3.34432456,7.30364014 3.34432456,8.04903875 C3.34432456,8.79443736 3.0386598,9.46791675 2.54662541,9.95288394 C2.54662541,9.95288394 2.38531078,10.1273097 2.45171375,10.3166853 C2.66081997,10.8316641 2.94157362,11.3191896 3.28972158,11.7632405 C3.42062483,11.9096053 3.63695816,11.8410438 3.63695816,11.8410438 C4.30316247,11.6575042 5.03951122,11.7296793 5.68524942,12.1023386 C6.33087569,12.474998 6.76155969,13.0763023 6.93566564,13.7447451 C6.93566564,13.7447451 7.02107973,13.9874925 7.21163853,14.0108207 C7.40221333,14.0342288 8.34274364,14.0832675 8.8992943,14.0011952 C9.06506991,13.9730063 9.11652302,13.7450808 9.11652302,13.7450808 C9.29062897,13.0765101 9.72123302,12.4750939 10.3670032,12.1023546 C11.0126774,11.7296952 11.7489622,11.6575841 12.4151186,11.8410597 C12.4151186,11.8410597 12.6499194,11.8944316 12.780295,11.7386172 C12.9460706,11.525034 13.5119909,10.5388866 13.6182548,10.2720116 C13.6613616,10.0947877 13.5056752,9.95297987 13.5056752,9.95297987 L13.5056752,9.95297987 Z M10.2590124,9.33778098 C9.54704711,10.5706251 7.97013225,10.9930427 6.73696834,10.2812853 C5.50374047,9.56952786 5.08125892,7.99310867 5.7932242,6.76029652 C6.50525345,5.52751634 8.08212033,5.10509873 9.31526825,5.81687216 C10.5484801,6.52861359 10.9709777,8.10500081 10.2590124,9.33778098 L10.2590124,9.33778098 Z" id="Shape" fill="#BCBCBC"></path>
        </g>
    </g>
</svg>